<?xml version="1.0" encoding="utf-8"?>
<!-- Generator: Adobe Illustrator 16.0.0, SVG Export Plug-In . SVG Version: 6.00 Build 0)  -->
<!DOCTYPE svg PUBLIC "-//W3C//DTD SVG 1.1//EN" "http://www.w3.org/Graphics/SVG/1.1/DTD/svg11.dtd">
<svg version="1.1"
	 id="svg2" xmlns:dc="http://purl.org/dc/elements/1.1/" xmlns:cc="http://creativecommons.org/ns#" xmlns:rdf="http://www.w3.org/1999/02/22-rdf-syntax-ns#" xmlns:svg="http://www.w3.org/2000/svg" xmlns:sodipodi="http://sodipodi.sourceforge.net/DTD/sodipodi-0.dtd" xmlns:inkscape="http://www.inkscape.org/namespaces/inkscape" sodipodi:docname="Neues Dokument 1" inkscape:version="0.48.5 r10040"
	 xmlns="http://www.w3.org/2000/svg" xmlns:xlink="http://www.w3.org/1999/xlink" x="0px" y="0px" width="595.275px"
	 height="841.89px" viewBox="0 0 595.275 841.89" enable-background="new 0 0 595.275 841.89" xml:space="preserve">
<sodipodi:namedview  pagecolor="#000000" showgrid="false" bordercolor="#666666" borderopacity="1.0" inkscape:zoom="0.32" inkscape:cx="717.27572" inkscape:cy="768.43778" id="base" inkscape:window-maximized="1" inkscape:window-x="-8" inkscape:document-units="px" inkscape:window-y="-8" inkscape:current-layer="layer1" inkscape:pageopacity="0" inkscape:pageshadow="2" inkscape:window-width="1280" inkscape:window-height="737">
	</sodipodi:namedview>
<g id="g4024" transform="matrix(0.64410641,0,0,0.64410641,-2876.9409,539.29911)">
	<path id="path3968" inkscape:connector-curvature="0" fill="#FFFFFF" d="M4963.404,237.398
		c-66.603-8.866-172.931-47.443-282.405-102.462c-78.814-39.608-135.576-76.108-162.96-104.793
		c-11.578-12.126-15.75-20.116-20.771-39.76c-7.511-29.386-10.616-66.104-10.574-125.04c0.047-67.577,4.646-128.724,14.874-197.768
		c3.213-21.714,8.354-49.978,9.25-50.883c0.379-0.382,2.814,2.337,5.413,6.044c8.575,12.237,20.248,20.078,29.951,20.117
		c2.92,0.013,6.658-0.608,8.735-1.451c1.998-0.81,4.365-1.472,5.261-1.472s2.707-0.45,4.024-1.003
		c1.318-0.551,4.691-1.468,7.498-2.036c2.808-0.569,10.081-2.243,16.162-3.721c6.083-1.477,13.93-3.279,17.439-4
		c3.508-0.722,9.059-1.875,12.333-2.563c3.273-0.688,8.852-1.734,12.39-2.324c3.54-0.59,6.927-1.376,7.529-1.747
		c0.602-0.371,3.895-0.991,7.318-1.374c3.427-0.384,6.927-1.069,7.783-1.521c0.854-0.453,4.425-1.243,7.936-1.757
		c3.507-0.516,9.441-1.495,13.184-2.179c3.742-0.683,9.866-1.792,13.607-2.464c3.745-0.672,8.144-1.64,9.778-2.151
		c1.634-0.512,4.612-0.932,6.62-0.932s5.023-0.574,6.704-1.277c1.68-0.7,5.016-1.292,7.414-1.312
		c2.399-0.02,5.894-0.588,7.764-1.263c1.873-0.675,4.938-1.233,6.811-1.239c1.875-0.008,4.746-0.435,6.38-0.951
		c2.661-0.839,9.294-2.01,22.748-4.016c2.458-0.366,4.467-0.344,4.467,0.047c0,0.393-2.244,4.241-4.982,8.552
		c-6.307,9.923-18.517,31.082-33.969,58.874c-8.568,15.412-10.198,18.408-18.024,33.173c-2.482,4.679-5.942,11.187-7.69,14.46
		c-10.32,19.326-32.144,63.971-40.956,83.786c-0.937,2.106-2.585,5.742-3.667,8.081c-1.081,2.339-2.979,6.741-4.218,9.782
		c-1.242,3.039-2.6,6.296-3.025,7.23c-10.625,23.473-18.629,47.028-21.758,64.03c-2.476,13.445-0.122,29.022,6.272,41.53
		c5.294,10.355,17.988,19.055,27.802,19.055c5.002,0,12.511-5.904,14.664-11.529c0.881-2.311,6.574-18.815,9.958-28.877
		c0.787-2.338,1.731-5.41,2.101-6.826c0.369-1.413,1.113-3.396,1.654-4.409c0.54-1.01,0.982-2.747,0.982-3.857
		c0-1.11,0.563-2.765,1.248-3.672c0.687-0.91,1.265-2.417,1.283-3.351c0.017-0.937,0.591-2.775,1.274-4.085
		c0.684-1.31,1.608-3.608,2.06-5.103c0.449-1.498,2.024-5.786,3.501-9.527s3.204-8.333,3.834-10.207
		c0.632-1.871,1.969-5.507,2.972-8.081c1.003-2.571,2.189-5.901,2.636-7.399c0.446-1.495,1.371-3.793,2.056-5.103
		c0.681-1.31,1.242-2.717,1.248-3.129c0.011-1.628,17.729-43.84,24.859-59.221c10.803-23.309,14.637-31.418,18.102-38.278
		c6.136-12.156,13.883-26.956,15.586-29.771c0.99-1.637,2.367-4.125,3.058-5.529c1.922-3.906,6.477-11.9,12.043-21.146
		c2.77-4.604,5.421-9.017,5.89-9.808c9.674-16.351,48.316-72.462,56.119-81.486c2.879-3.329,2.973-3.351,33.921-7.522
		c5.546-0.747,11.025-1.718,12.176-2.155c1.152-0.437,4.125-0.796,6.61-0.796c2.482,0,6.142-0.574,8.131-1.276
		c1.988-0.701,5.817-1.275,8.505-1.275c2.688,0,6.518-0.575,8.507-1.277c1.988-0.701,5.838-1.277,8.557-1.277
		c2.717,0,6.019-0.431,7.335-0.957c1.318-0.527,5.648-1.276,9.626-1.664c3.977-0.39,14.12-1.697,22.541-2.909
		c8.422-1.211,18.411-2.507,22.198-2.883c3.789-0.375,7.396-0.998,8.019-1.381c0.623-0.385,4.794-0.979,9.271-1.322
		c4.48-0.342,11.208-1.034,14.95-1.537c20.206-2.715,40.645-5.184,50.186-6.059c4.213-0.386,13.152-1.31,19.869-2.053
		c6.716-0.743,14.062-1.352,16.318-1.352c2.259,0,5.032-0.351,6.163-0.782c1.131-0.429,12.114-1.211,24.41-1.737
		c17.271-0.738,22.96-1.263,25.007-2.305c1.458-0.741,5.62-4.429,9.246-8.194c6.129-6.366,6.59-7.099,6.59-10.488
		c0-2.87-0.496-4.115-2.338-5.863c-2.809-2.663-8.067-5.507-10.172-5.501c-0.838,0-3.246-0.544-5.352-1.214
		c-4.903-1.561-14.36-2.864-29.347-4.043c-19.757-1.556-102.257-0.825-114.406,1.014c-3.042,0.46-15.289,1.229-27.215,1.71
		c-11.929,0.481-23.029,1.209-24.669,1.615c-1.639,0.409-9.494,0.973-17.456,1.255c-7.96,0.281-15.804,0.895-17.434,1.361
		c-1.624,0.466-6.045,0.848-9.82,0.848c-3.778,0-8.95,0.365-11.491,0.811c-2.542,0.447-10.555,1.212-17.806,1.702
		c-7.253,0.489-15.099,1.255-17.438,1.699c-2.339,0.444-9.804,1.228-16.588,1.742c-16.531,1.252-46.206,4.263-59.967,6.087
		c-3.742,0.495-10.633,1.211-15.309,1.592c-4.68,0.381-15.206,1.505-23.394,2.5c-8.186,0.995-18.521,2.154-22.965,2.577
		c-4.445,0.425-9.996,1.146-12.334,1.607c-4.291,0.844-23.649,3.141-37.001,4.39c-3.977,0.372-8.566,1.089-10.202,1.593
		c-1.635,0.506-5.196,0.917-7.917,0.917c-2.72,0-6.55,0.383-8.512,0.85c-1.96,0.467-7.011,1.225-11.223,1.682
		c-7.881,0.858-27.536,3.461-42.529,5.634c-4.681,0.678-12.334,1.78-17.014,2.449c-4.676,0.669-12.142,1.808-16.585,2.532
		c-7.676,1.248-13.873,2.219-32.324,5.061c-13.483,2.079-23.532,3.853-24.988,4.411c-0.822,0.315-1.38,0.096-1.38-0.537
		c0-2.142,7.927-27.906,11.897-38.669c15.374-41.674,27.224-57.505,57-76.137c67.975-42.536,217.978-85.863,345.775-99.878
		c33.469-3.67,44.019-4.266,75.278-4.248c31.7,0.017,41.813,0.797,60.395,4.655c26.415,5.485,43.708,16.312,73.197,45.831
		c38.685,38.725,79.205,93.205,122.15,164.228c10.229,16.916,27.512,47.245,27.512,48.279c0,0.73-22.906,2.345-44.657,3.148
		c-6.083,0.224-18.33,0.992-27.221,1.706c-8.888,0.713-28.986,2.255-44.657,3.427c-15.671,1.172-29.644,2.358-31.046,2.639
		s-7.144,0.819-12.76,1.198c-17.486,1.181-38.967,3.301-42.754,4.22c-1.996,0.484-6.429,0.88-9.855,0.88
		c-3.424,0-8.298,0.387-10.832,0.86c-4.104,0.767-13.959,1.853-38.633,4.257c-19.266,1.877-33.558,3.529-37.854,4.375
		c-2.571,0.506-8.313,1.212-12.757,1.567c-7.247,0.578-13.823,1.355-47.21,5.576c-19.531,2.468-29.388,4.338-35.299,6.692
		c-1.639,0.652-5.173,2.029-7.858,3.06c-5.772,2.214-7.318,4.332-9.917,13.592c-0.985,3.508-2.934,10.208-4.332,14.886
		c-1.398,4.678-2.537,9.079-2.533,9.781c0,0.701-1.219,5.219-2.72,10.038c-2.662,8.562-2.697,8.874-1.481,13.536
		c1.829,7.023,3.686,8.111,11.828,6.939c3.512-0.506,8.022-1.454,10.026-2.107c2.004-0.652,5.173-1.187,7.042-1.187
		c1.871,0,4.773-0.574,6.453-1.276c1.683-0.701,4.828-1.293,6.993-1.312c2.165-0.02,5.466-0.59,7.336-1.264
		c1.873-0.674,4.744-1.233,6.386-1.239c1.642-0.009,4.319-0.434,5.956-0.951c1.634-0.516,6.225-1.456,10.202-2.089
		c3.977-0.633,10.482-1.734,14.459-2.446c3.977-0.712,9.91-1.706,13.185-2.211c3.275-0.503,7.904-1.468,10.282-2.145
		c2.379-0.675,6.125-1.228,8.319-1.228c2.197,0,5.37-0.574,7.047-1.276c3.193-1.335,9.65-1.751,9.65-0.624
		c0,0.359-0.896,1.986-1.997,3.615c-6.625,9.827-35.851,61.135-51.349,90.151c-12.134,22.715-10.972,21.044-15.377,22.105
		c-2.204,0.534-6.108,1.322-8.685,1.756c-2.573,0.434-6.018,1.158-7.653,1.613c-1.641,0.455-7.188,1.628-12.334,2.608
		c-13.459,2.562-14.737,3.105-20.639,8.772c-5.613,5.388-7.834,10.088-7.878,16.672c-0.011,1.674-0.813,5.907-1.78,9.418
		c-2.241,8.124-3.055,21.602-1.613,26.748c1.413,5.043,5.81,10.022,11.239,12.73c5.081,2.532,6.643,2.681,9.974,0.958
		c1.319-0.685,2.604-1.04,2.85-0.791c0.358,0.355-6.677,17.442-14.32,34.781c-5.59,12.681-12.073,30.641-16.125,44.66
		c-3.821,13.221-3.899,33.413-0.174,44.302c2.931,8.569,5.055,12.144,10.745,18.073c5.942,6.195,11.256,8.991,18.344,9.655
		c4.859,0.455,5.834,0.267,9.335-1.786c4.185-2.45,7.867-7.432,9.127-12.354c0.429-1.662,1.134-3.793,1.569-4.727
		c0.437-0.934,2.717-7.632,5.07-14.886c2.353-7.25,4.691-14.334,5.197-15.735c0.505-1.407,1.237-3.699,1.624-5.103
		c0.905-3.287,5.416-15.647,11.015-30.199c2.432-6.316,4.741-12.633,5.137-14.037c0.668-2.38,5.255-14.889,6.857-18.712
		c0.393-0.934,1.551-3.806,2.576-6.38c1.022-2.571,2.606-6.398,3.522-8.506c0.917-2.104,1.986-4.591,2.379-5.528
		s2.12-4.955,3.836-8.933c1.718-3.978,3.945-9.142,4.949-11.483c1.003-2.338,2.976-6.541,4.38-9.336
		c2.521-5.018,2.632-5.109,8.083-6.671c3.043-0.87,7.063-2.383,8.935-3.36c1.871-0.979,5.315-2.25,7.655-2.823
		c2.339-0.573,8.081-2.08,12.757-3.351c4.681-1.267,10.142-2.632,12.135-3.029c1.996-0.4,4.361-1.119,5.258-1.601
		c0.899-0.479,2.712-0.876,4.028-0.879c1.319,0,3.393-0.525,4.611-1.161c1.216-0.634,4.042-1.428,6.277-1.762
		c2.235-0.337,4.874-0.928,5.867-1.313c0.992-0.388,5.437-1.528,9.882-2.535c7.857-1.777,12.381-2.811,23.816-5.434
		c3.042-0.697,9.357-2.095,14.035-3.108c4.681-1.016,9.848-2.195,11.485-2.623c1.637-0.428,5.273-1.143,8.079-1.586
		c4.985-0.785,14.011-2.547,21.69-4.227c2.106-0.464,6.891-1.289,10.633-1.841c8.155-1.198,10.613-2.556,16.048-8.854
		c4.926-5.707,6.492-10.273,6.492-18.93c0-7.399-1.268-10.145-6.288-13.626l-3.346-2.317l-24.582-0.252
		c-14.76-0.149-27.535,0.132-31.971,0.705c-4.068,0.525-12.369,1.469-18.453,2.101c-14.578,1.512-31.924,3.671-38.274,4.768
		c-2.806,0.484-7.784,1.217-11.057,1.63c-3.276,0.414-9.591,1.34-14.035,2.06c-9.749,1.58-10.208,1.593-10.208,0.311
		c0-1.146,6.638-13.009,15.235-27.233c9.02-14.917,26.407-40.995,40.399-60.588c5.657-7.923,11.244-15.773,12.413-17.444
		c7.353-10.51,6.894-10.264,23.391-12.464c10.662-1.421,19.443-2.696,34.452-5.001c16.36-2.515,32.368-4.899,51.037-7.603
		c4.445-0.644,13.057-1.788,19.14-2.542c6.083-0.754,12.016-1.6,13.182-1.882c2.666-0.638,18.496-2.743,28.073-3.734
		c3.976-0.41,9.144-1.13,11.483-1.6c4.376-0.876,24.2-3.197,37-4.332c3.975-0.352,9.042-1.12,11.254-1.706
		c2.213-0.584,4.618-0.837,5.34-0.559c0.726,0.277,3.445,5.009,6.048,10.517c23.235,49.164,37.379,87.703,44.258,120.592
		c1.956,9.364,2.318,13.209,2.352,25.092c0.042,13.077-0.112,14.505-2.265,20.882c-3.261,9.673-14.284,31.493-24.398,48.28
		c-48.774,80.99-147.456,201.991-223.794,274.414c-52.551,49.86-90.59,76.269-117.221,81.381
		C4994.808,239.072,4975.374,238.99,4963.404,237.398L4963.404,237.398z"/>
</g>
</svg>
